<svg width="41" height="40" viewBox="0 0 41 40" fill="none" xmlns="http://www.w3.org/2000/svg">
<path d="M27.5024 37.5H21.2524C20.5624 37.5 20.0024 38.0588 20.0024 38.75C20.0024 39.4412 20.5624 40 21.2524 40H27.5024C28.1924 40 28.7524 39.4412 28.7524 38.75C28.7524 38.0588 28.1924 37.5 27.5024 37.5ZM10.0024 0C0.00244141 0 0.00244141 3.445 0.00244141 20C0.00244141 36.555 0.00244141 40 10.0024 40C20.0024 40 20.0024 36.555 20.0024 20C20.0024 3.445 20.0024 0 10.0024 0ZM10.0024 37.5C2.78494 37.5 2.50244 37.5 2.50244 20C2.50244 2.5 2.78494 2.5 10.0024 2.5C17.2199 2.5 17.5024 2.5 17.5024 20C17.5024 37.5 17.2199 37.5 10.0024 37.5ZM13.7524 8.75H6.25244C5.56244 8.75 5.00244 9.30875 5.00244 10C5.00244 10.6912 5.56244 11.25 6.25244 11.25H13.7524C14.4424 11.25 15.0024 10.6912 15.0024 10C15.0024 9.30875 14.4424 8.75 13.7524 8.75ZM13.7524 13.75H6.25244C5.56244 13.75 5.00244 14.3088 5.00244 15C5.00244 15.6912 5.56244 16.25 6.25244 16.25H13.7524C14.4424 16.25 15.0024 15.6912 15.0024 15C15.0024 14.3088 14.4424 13.75 13.7524 13.75ZM13.7524 18.75H6.25244C5.56244 18.75 5.00244 19.3088 5.00244 20C5.00244 20.6912 5.56244 21.25 6.25244 21.25H13.7524C14.4424 21.25 15.0024 20.6912 15.0024 20C15.0024 19.3088 14.4424 18.75 13.7524 18.75ZM23.7749 5.03C23.0524 5.02625 22.5137 5.56625 22.5012 6.25875C22.4887 6.94875 23.0387 7.51875 23.7287 7.53125C36.6512 7.7625 37.5024 9.31375 37.5024 20C37.5024 30.6875 36.6512 32.2388 23.7299 32.4725C23.0399 32.485 22.4899 33.055 22.5024 33.7463C22.5149 34.4287 23.0724 34.9725 23.7524 34.9725H23.7762C37.5762 34.7225 40.0024 32.4837 40.0024 20C40.0024 7.5175 37.5762 5.27875 23.7749 5.03Z" fill="#A5A1B2"/>
</svg>
